{
  "accessors": [
    {
      "bufferView": 2,
      "componentType": 5126,
      "count": 27966,
      "max": [
        -32.5020866394043,
        29.34697914123535,
        18.749168395996094
      ],
      "min": [
        -132.48504638671875,
        8.39432144165039,
        4.329574108123779
      ],
      "type": "VEC3"
    },
    {
      "bufferView": 2,
      "byteOffset": 335592,
      "componentType": 5126,
      "count": 27966,
      "max": [
        0.9967408180236816,
        0.9999841451644897,
        0.9998931884765625
      ],
      "min": [
        -0.9994609355926514,
        -0.99993896484375,
        -0.9998822212219238
      ],
      "type": "VEC3"
    },
    {
      "bufferView": 1,
      "componentType": 5126,
      "count": 27966,
      "max": [
        0.9900000095367432,
        0.8266670107841492
      ],
      "min": [
        0.009999999776482582,
        0.009999999776482582
      ],
      "type": "VEC2"
    },
    {
      "bufferView": 2,
      "byteOffset": 671184,
      "componentType": 5126,
      "count": 27966,
      "max": [
        0.0337677001953125,
        5.96769905090332,
        0.039257049560546875
      ],
      "min": [
        -0.03376007080078125,
        -5.967571258544922,
        -0.039257049560546875
      ],
      "type": "VEC3"
    },
    {
      "bufferView": 2,
      "byteOffset": 1006776,
      "componentType": 5126,
      "count": 27966,
      "max": [
        1.0150712728500366,
        0.7801039218902588,
        0.7391628623008728
      ],
      "min": [
        -1.183300495147705,
        -0.6019234657287598,
        -0.7392979264259338
      ],
      "type": "VEC3"
    },
    {
      "bufferView": 2,
      "byteOffset": 1342368,
      "componentType": 5126,
      "count": 27966,
      "max": [
        0.03404998779296875,
        6.0183868408203125,
        0.0389251708984375
      ],
      "min": [
        -0.033477783203125,
        -5.917170524597168,
        -0.039589881896972656
      ],
      "type": "VEC3"
    },
    {
      "bufferView": 2,
      "byteOffset": 1677960,
      "componentType": 5126,
      "count": 27966,
      "max": [
        1.0198460817337036,
        0.7806844711303711,
        0.7389558553695679
      ],
      "min": [
        -1.1859533786773682,
        -0.6004810333251953,
        -0.7396529316902161
      ],
      "type": "VEC3"
    },
    {
      "bufferView": 2,
      "byteOffset": 2013552,
      "componentType": 5126,
      "count": 27966,
      "max": [
        0.0348968505859375,
        6.168413162231445,
        0.03798198699951172
      ],
      "min": [
        -0.03266143798828125,
        -5.77374267578125,
        -0.040576934814453125
      ],
      "type": "VEC3"
    },
    {
      "bufferView": 2,
      "byteOffset": 2349144,
      "componentType": 5126,
      "count": 27966,
      "max": [
        1.0298742055892944,
        0.7819985151290894,
        0.738311767578125
      ],
      "min": [
        -1.1898767948150635,
        -0.5970964431762695,
        -0.7404848337173462
      ],
      "type": "VEC3"
    },
    {
      "bufferView": 2,
      "byteOffset": 2684736,
      "componentType": 5126,
      "count": 27966,
      "max": [
        0.0362701416015625,
        6.411189079284668,
        0.0365447998046875
      ],
      "min": [
        -0.03142547607421875,
        -5.555442810058594,
        -0.04217338562011719
      ],
      "type": "VEC3"
    },
    {
      "bufferView": 2,
      "byteOffset": 3020328,
      "componentType": 5126,
      "count": 27966,
      "max": [
        1.037882685661316,
        0.7830352783203125,
        0.7372646331787109
      ],
      "min": [
        -1.184117317199707,
        -0.5941934585571289,
        -0.7412226796150208
      ],
      "type": "VEC3"
    },
    {
      "bufferView": 2,
      "byteOffset": 3355920,
      "componentType": 5126,
      "count": 27966,
      "max": [
        0.03816986083984375,
        6.746580123901367,
        0.03472328186035156
      ],
      "min": [
        -0.0298614501953125,
        -5.278460502624512,
        -0.04438018798828125
      ],
      "type": "VEC3"
    },
    {
      "bufferView": 2,
      "byteOffset": 3691512,
      "componentType": 5126,
      "count": 27966,
      "max": [
        1.036543607711792,
        0.7825717329978943,
        0.7358425259590149
      ],
      "min": [
        -1.1511614322662354,
        -0.5950487852096558,
        -0.7410709857940674
      ],
      "type": "VEC3"
    },
    {
      "bufferView": 2,
      "byteOffset": 4027104,
      "componentType": 5126,
      "count": 27966,
      "max": [
        0.04058837890625,
        7.175712585449219,
        0.032647132873535156
      ],
      "min": [
        -0.028076171875,
        -4.96291446685791,
        -0.047202110290527344
      ],
      "type": "VEC3"
    },
    {
      "bufferView": 2,
      "byteOffset": 4362696,
      "componentType": 5126,
      "count": 27966,
      "max": [
        1.0419936180114746,
        0.7792377471923828,
        0.7341880798339844
      ],
      "min": [
        -1.1494696140289307,
        -0.6030281782150269,
        -0.7392276525497437
      ],
      "type": "VEC3"
    },
    {
      "bufferView": 2,
      "byteOffset": 4698288,
      "componentType": 5126,
      "count": 27966,
      "max": [
        0.04354095458984375,
        7.696789741516113,
        0.030431747436523438
      ],
      "min": [
        -0.0261688232421875,
        -4.626038551330566,
        -0.05063056945800781
      ],
      "type": "VEC3"
    },
    {
      "bufferView": 2,
      "byteOffset": 5033880,
      "componentType": 5126,
      "count": 27966,
      "max": [
        1.0579822063446045,
        0.7713295221328735,
        0.732465922832489
      ],
      "min": [
        -1.1391773223876953,
        -0.620502233505249,
        -0.7351267337799072
      ],
      "type": "VEC3"
    },
    {
      "bufferView": 2,
      "byteOffset": 5369472,
      "componentType": 5126,
      "count": 27966,
      "max": [
        0.04578399658203125,
        8.09388542175293,
        0.028426170349121094
      ],
      "min": [
        -0.024444580078125,
        -4.321213722229004,
        -0.05324363708496094
      ],
      "type": "VEC3"
    },
    {
      "bufferView": 2,
      "byteOffset": 5705064,
      "componentType": 5126,
      "count": 27966,
      "max": [
        1.0117510557174683,
        0.7570436000823975,
        0.7307626008987427
      ],
      "min": [
        -1.090754747390747,
        -0.647146463394165,
        -0.7288717031478882
      ],
      "type": "VEC3"
    },
    {
      "bufferView": 2,
      "byteOffset": 6040656,
      "componentType": 5126,
      "count": 27966,
      "max": [
        0.04291534423828125,
        7.586660385131836,
        0.030875205993652344
      ],
      "min": [
        -0.02655792236328125,
        -4.693564414978027,
        -0.04990577697753906
      ],
      "type": "VEC3"
    },
    {
      "bufferView": 2,
      "byteOffset": 6376248,
      "componentType": 5126,
      "count": 27966,
      "max": [
        0.9658597707748413,
        0.7359322309494019,
        0.7291920185089111
      ],
      "min": [
        -1.029919147491455,
        -0.6786390542984009,
        -0.7215049862861633
      ],
      "type": "VEC3"
    },
    {
      "bufferView": 2,
      "byteOffset": 6711840,
      "componentType": 5126,
      "count": 27966,
      "max": [
        0.03936767578125,
        6.959144592285156,
        0.03366661071777344
      ],
      "min": [
        -0.02895355224609375,
        -5.117887496948242,
        -0.04577827453613281
      ],
      "type": "VEC3"
    },
    {
      "bufferView": 2,
      "byteOffset": 7047432,
      "componentType": 5126,
      "count": 27966,
      "max": [
        0.9801982641220093,
        0.7108964920043945,
        0.7280467748641968
      ],
      "min": [
        -0.9494763612747192,
        -0.7076869010925293,
        -0.7185693979263306
      ],
      "type": "VEC3"
    },
    {
      "bufferView": 2,
      "byteOffset": 7383024,
      "componentType": 5126,
      "count": 27966,
      "max": [
        0.03604888916015625,
        6.371923446655273,
        0.036769866943359375
      ],
      "min": [
        -0.03162384033203125,
        -5.589532852172852,
        -0.0419158935546875
      ],
      "type": "VEC3"
    },
    {
      "bufferView": 2,
      "byteOffset": 7718616,
      "componentType": 5126,
      "count": 27966,
      "max": [
        0.966925859451294,
        0.6879231929779053,
        0.7278308272361755
      ],
      "min": [
        -0.9924401044845581,
        -0.7282520532608032,
        -0.7170519232749939
      ],
      "type": "VEC3"
    },
    {
      "bufferView": 2,
      "byteOffset": 8054208,
      "componentType": 5126,
      "count": 27966,
      "max": [
        0.03299713134765625,
        5.831787109375,
        0.04015827178955078
      ],
      "min": [
        -0.03453826904296875,
        -6.104758262634277,
        -0.03836250305175781
      ],
      "type": "VEC3"
    },
    {
      "bufferView": 2,
      "byteOffset": 8389800,
      "componentType": 5126,
      "count": 27966,
      "max": [
        0.953453540802002,
        0.6730239391326904,
        0.7288460731506348
      ],
      "min": [
        -0.9912512302398682,
        -0.7389366626739502,
        -0.7161372303962708
      ],
      "type": "VEC3"
    },
    {
      "bufferView": 2,
      "byteOffset": 8725392,
      "componentType": 5126,
      "count": 27966,
      "max": [
        0.03026580810546875,
        5.350734710693359,
        0.043776512145996094
      ],
      "min": [
        -0.0376434326171875,
        -6.654803276062012,
        -0.03519916534423828
      ],
      "type": "VEC3"
    },
    {
      "bufferView": 2,
      "byteOffset": 9060984,
      "componentType": 5126,
      "count": 27966,
      "max": [
        0.9585957527160645,
        0.6694796085357666,
        0.7309218049049377
      ],
      "min": [
        -1.012037754058838,
        -0.7412829399108887,
        -0.7162756323814392
      ],
      "type": "VEC3"
    },
    {
      "bufferView": 2,
      "byteOffset": 9396576,
      "componentType": 5126,
      "count": 27966,
      "max": [
        0.027862548828125,
        4.924236297607422,
        0.04755210876464844
      ],
      "min": [
        -0.0408935546875,
        -7.228703498840332,
        -0.03239154815673828
      ],
      "type": "VEC3"
    },
    {
      "bufferView": 2,
      "byteOffset": 9732168,
      "componentType": 5126,
      "count": 27966,
      "max": [
        1.029191255569458,
        0.6770980358123779,
        0.7335892915725708
      ],
      "min": [
        -1.095384120941162,
        -0.7363895177841187,
        -0.7174197435379028
      ],
      "type": "VEC3"
    },
    {
      "bufferView": 2,
      "byteOffset": 10067760,
      "componentType": 5126,
      "count": 27966,
      "max": [
        0.02577972412109375,
        4.557439804077148,
        0.051387786865234375
      ],
      "min": [
        -0.044189453125,
        -7.811880111694336,
        -0.029979705810546875
      ],
      "type": "VEC3"
    },
    {
      "bufferView": 2,
      "byteOffset": 10403352,
      "componentType": 5126,
      "count": 27966,
      "max": [
        1.0189127922058105,
        0.6928303241729736,
        0.7362671494483948
      ],
      "min": [
        -1.0947785377502441,
        -0.7243423461914063,
        -0.7190952301025391
      ],
      "type": "VEC3"
    },
    {
      "bufferView": 2,
      "byteOffset": 10738944,
      "componentType": 5126,
      "count": 27966,
      "max": [
        0.024631500244140625,
        4.354091644287109,
        0.05315971374511719
      ],
      "min": [
        -0.04571533203125,
        -8.081289291381836,
        -0.028642654418945313
      ],
      "type": "VEC3"
    },
    {
      "bufferView": 2,
      "byteOffset": 11074536,
      "componentType": 5126,
      "count": 27966,
      "max": [
        1.037095546722412,
        0.7120581865310669,
        0.7385215759277344
      ],
      "min": [
        -1.104447603225708,
        -0.7062983512878418,
        -0.7207061052322388
      ],
      "type": "VEC3"
    },
    {
      "bufferView": 2,
      "byteOffset": 11410128,
      "componentType": 5126,
      "count": 27966,
      "max": [
        0.0261993408203125,
        4.630884170532227,
        0.05059528350830078
      ],
      "min": [
        -0.04351043701171875,
        -7.691329002380371,
        -0.030462265014648438
      ],
      "type": "VEC3"
    },
    {
      "bufferView": 2,
      "byteOffset": 11745720,
      "componentType": 5126,
      "count": 27966,
      "max": [
        1.0916216373443604,
        0.730313777923584,
        0.7400783896446228
      ],
      "min": [
        -1.1337077617645264,
        -0.6855496168136597,
        -0.7219123244285583
      ],
      "type": "VEC3"
    },
    {
      "bufferView": 2,
      "byteOffset": 12081312,
      "componentType": 5126,
      "count": 27966,
      "max": [
        0.02756500244140625,
        4.873176574707031,
        0.048071861267089844
      ],
      "min": [
        -0.04134368896484375,
        -7.307683944702148,
        -0.03205680847167969
      ],
      "type": "VEC3"
    },
    {
      "bufferView": 2,
      "byteOffset": 12416904,
      "componentType": 5126,
      "count": 27966,
      "max": [
        1.1241374015808105,
        0.7447922229766846,
        0.7408965826034546
      ],
      "min": [
        -1.1743521690368652,
        -0.666212797164917,
        -0.7244869470596313
      ],
      "type": "VEC3"
    },
    {
      "bufferView": 2,
      "byteOffset": 12752496,
      "componentType": 5126,
      "count": 27966,
      "max": [
        0.028656005859375,
        5.064594268798828,
        0.04625415802001953
      ],
      "min": [
        -0.03977203369140625,
        -7.031466484069824,
        -0.03331470489501953
      ],
      "type": "VEC3"
    },
    {
      "bufferView": 2,
      "byteOffset": 13088088,
      "componentType": 5126,
      "count": 27966,
      "max": [
        1.1281821727752686,
        0.7546428442001343,
        0.7411757707595825
      ],
      "min": [
        -1.1788244247436523,
        -0.651278018951416,
        -0.7277988791465759
      ],
      "type": "VEC3"
    },
    {
      "bufferView": 2,
      "byteOffset": 13423680,
      "componentType": 5126,
      "count": 27966,
      "max": [
        0.02936553955078125,
        5.190338134765625,
        0.04512786865234375
      ],
      "min": [
        -0.03881072998046875,
        -6.860202789306641,
        -0.03414344787597656
      ],
      "type": "VEC3"
    },
    {
      "bufferView": 2,
      "byteOffset": 13759272,
      "componentType": 5126,
      "count": 27966,
      "max": [
        1.1222914457321167,
        0.7601974606513977,
        0.7411882877349854
      ],
      "min": [
        -1.1719146966934204,
        -0.6420665979385376,
        -0.7298805713653564
      ],
      "type": "VEC3"
    },
    {
      "bufferView": 2,
      "byteOffset": 14094864,
      "componentType": 5126,
      "count": 27966,
      "max": [
        0.0296173095703125,
        5.234785079956055,
        0.04474830627441406
      ],
      "min": [
        -0.03849029541015625,
        -6.802525520324707,
        -0.034435272216796875
      ],
      "type": "VEC3"
    },
    {
      "bufferView": 2,
      "byteOffset": 14430456,
      "componentType": 5126,
      "count": 27966,
      "max": [
        1.118605136871338,
        0.762006402015686,
        0.7411679029464722
      ],
      "min": [
        -1.1687617301940918,
        -0.6389257907867432,
        -0.7305929064750671
      ],
      "type": "VEC3"
    },
    {
      "bufferView": 0,
      "componentType": 5125,
      "count": 130032,
      "type": "SCALAR"
    },
    {
      "bufferView": 3,
      "componentType": 5126,
      "count": 21,
      "max": [
        0.6666666865348816
      ],
      "min": [
        0.0
      ],
      "type": "SCALAR"
    },
    {
      "bufferView": 3,
      "byteOffset": 84,
      "componentType": 5126,
      "count": 441,
      "max": [
        1.0
      ],
      "min": [
        0.0
      ],
      "type": "SCALAR"
    }
  ],
  "animations": [
    {
      "channels": [
        {
          "sampler": 0,
          "target": {
            "node": 6,
            "path": "weights"
          }
        }
      ],
      "name": "Take 001",
      "samplers": [
        {
          "input": 46,
          "interpolation": "LINEAR",
          "output": 47
        }
      ]
    }
  ],
  "asset": {
    "extras": {
      "author": "darwinmuseum.ru (https://sketchfab.com/darwinmuseum.ru)",
      "license": "CC0-1.0 (http://creativecommons.org/publicdomain/zero/1.0/)",
      "source": "https://sketchfab.com/3d-models/pikaia-fdf35446aa6044ebac35ed2a83c9f717",
      "title": "Пикая | Pikaia"
    },
    "generator": "Sketchfab-12.68.0",
    "version": "2.0"
  },
  "bufferViews": [
    {
      "buffer": 0,
      "byteLength": 520128,
      "name": "floatBufferViews",
      "target": 34963
    },
    {
      "buffer": 0,
      "byteLength": 223728,
      "byteOffset": 520128,
      "byteStride": 8,
      "name": "floatBufferViews",
      "target": 34962
    },
    {
      "buffer": 0,
      "byteLength": 14766048,
      "byteOffset": 743856,
      "byteStride": 12,
      "name": "floatBufferViews",
      "target": 34962
    },
    {
      "buffer": 0,
      "byteLength": 1848,
      "byteOffset": 15509904,
      "name": "floatBufferViews"
    }
  ],
  "buffers": [
    {
      "byteLength": 15511752,
      "uri": "scene.bin"
    }
  ],
  "images": [
    {
      "uri": "textures/wire_154185229_baseColor.jpeg"
    },
    {
      "uri": "textures/wire_154185229_metallicRoughness.png"
    }
  ],
  "materials": [
    {
      "doubleSided": true,
      "name": "wire_154185229",
      "pbrMetallicRoughness": {
        "baseColorTexture": {
          "index": 0
        },
        "metallicRoughnessTexture": {
          "index": 1
        }
      }
    }
  ],
  "meshes": [
    {
      "name": "0",
      "primitives": [
        {
          "attributes": {
            "NORMAL": 1,
            "POSITION": 0,
            "TEXCOORD_0": 2
          },
          "indices": 45,
          "material": 0,
          "mode": 4,
          "targets": [
            {
              "NORMAL": 4,
              "POSITION": 3
            },
            {
              "NORMAL": 6,
              "POSITION": 5
            },
            {
              "NORMAL": 8,
              "POSITION": 7
            },
            {
              "NORMAL": 10,
              "POSITION": 9
            },
            {
              "NORMAL": 12,
              "POSITION": 11
            },
            {
              "NORMAL": 14,
              "POSITION": 13
            },
            {
              "NORMAL": 16,
              "POSITION": 15
            },
            {
              "NORMAL": 18,
              "POSITION": 17
            },
            {
              "NORMAL": 20,
              "POSITION": 19
            },
            {
              "NORMAL": 22,
              "POSITION": 21
            },
            {
              "NORMAL": 24,
              "POSITION": 23
            },
            {
              "NORMAL": 26,
              "POSITION": 25
            },
            {
              "NORMAL": 28,
              "POSITION": 27
            },
            {
              "NORMAL": 30,
              "POSITION": 29
            },
            {
              "NORMAL": 32,
              "POSITION": 31
            },
            {
              "NORMAL": 34,
              "POSITION": 33
            },
            {
              "NORMAL": 36,
              "POSITION": 35
            },
            {
              "NORMAL": 38,
              "POSITION": 37
            },
            {
              "NORMAL": 40,
              "POSITION": 39
            },
            {
              "NORMAL": 42,
              "POSITION": 41
            },
            {
              "NORMAL": 44,
              "POSITION": 43
            }
          ]
        }
      ],
      "weights": [
        0.0,
        0.0,
        0.0,
        0.0,
        0.0,
        0.0,
        0.0,
        0.0,
        0.0,
        0.0,
        0.0,
        0.0,
        0.0,
        0.0,
        0.0,
        0.0,
        0.0,
        0.0,
        0.0,
        0.0,
        0.0
      ]
    }
  ],
  "nodes": [
    {
      "children": [
        1
      ],
      "matrix": [
        1.0,
        0.0,
        0.0,
        0.0,
        0.0,
        2.220446049250313e-16,
        -1.0,
        0.0,
        0.0,
        1.0,
        2.220446049250313e-16,
        0.0,
        0.0,
        0.0,
        0.0,
        1.0
      ],
      "name": "Sketchfab_model"
    },
    {
      "children": [
        2
      ],
      "matrix": [
        1.0,
        0.0,
        0.0,
        0.0,
        0.0,
        0.0,
        1.0,
        0.0,
        0.0,
        -1.0,
        0.0,
        0.0,
        0.0,
        0.0,
        0.0,
        1.0
      ],
      "name": "b858f6561efd490199e7905379db49c2.fbx"
    },
    {
      "children": [
        3
      ],
      "name": "Object_2"
    },
    {
      "children": [
        4
      ],
      "name": "RootNode"
    },
    {
      "children": [
        5
      ],
      "name": "Pikaia001",
      "rotation": [
        -0.7071068286895752,
        -0.0,
        0.0,
        0.7071068286895752
      ],
      "scale": [
        2.5399999618530273,
        2.5399999618530273,
        2.5399999618530273
      ]
    },
    {
      "children": [
        6
      ],
      "matrix": [
        1.0,
        0.0,
        -0.0,
        0.0,
        0.0,
        1.0,
        0.0,
        0.0,
        0.0,
        0.0,
        1.0,
        0.0,
        82.49356842041016,
        -18.870651245117188,
        -11.539371490478516,
        1.0
      ],
      "name": "Object_5"
    },
    {
      "mesh": 0,
      "name": "0"
    }
  ],
  "samplers": [
    {
      "magFilter": 9729,
      "minFilter": 9987,
      "wrapS": 10497,
      "wrapT": 10497
    }
  ],
  "scene": 0,
  "scenes": [
    {
      "name": "Sketchfab_Scene",
      "nodes": [
        0
      ]
    }
  ],
  "textures": [
    {
      "sampler": 0,
      "source": 0
    },
    {
      "sampler": 0,
      "source": 1
    }
  ]
}
