{
  "accessors": [
    {
      "bufferView": 2,
      "componentType": 5126,
      "count": 168,
      "max": [
        27.524497985839844,
        16.6310977935791,
        178.26577758789063
      ],
      "min": [
        -7.428098201751709,
        -20.287199020385742,
        101.01728820800781
      ],
      "type": "VEC3"
    },
    {
      "bufferView": 2,
      "byteOffset": 2016,
      "componentType": 5126,
      "count": 168,
      "max": [
        0.999944269657135,
        1.0,
        0.5201666951179504
      ],
      "min": [
        -0.9994412660598755,
        -1.0,
        -0.22699084877967834
      ],
      "type": "VEC3"
    },
    {
      "bufferView": 1,
      "componentType": 5126,
      "count": 168,
      "max": [
        0.9272000193595886,
        4.654900074005127
      ],
      "min": [
        -0.6620000004768372,
        0.031099999323487282
      ],
      "type": "VEC2"
    },
    {
      "bufferView": 0,
      "componentType": 5125,
      "count": 357,
      "type": "SCALAR"
    },
    {
      "bufferView": 2,
      "byteOffset": 4032,
      "componentType": 5126,
      "count": 326,
      "max": [
        17.25579833984375,
        5.458800792694092,
        95.89169311523438
      ],
      "min": [
        -17.25579833984375,
        -22.462799072265625,
        -0.1606999933719635
      ],
      "type": "VEC3"
    },
    {
      "bufferView": 2,
      "byteOffset": 7944,
      "componentType": 5126,
      "count": 326,
      "max": [
        0.9998676180839539,
        0.9921655058860779,
        0.8980379104614258
      ],
      "min": [
        -0.9998676180839539,
        -0.999548614025116,
        -1.0
      ],
      "type": "VEC3"
    },
    {
      "bufferView": 1,
      "byteOffset": 1344,
      "componentType": 5126,
      "count": 326,
      "max": [
        0.982699990272522,
        0.9854000210762024
      ],
      "min": [
        0.017899999395012856,
        0.021800000220537186
      ],
      "type": "VEC2"
    },
    {
      "bufferView": 0,
      "byteOffset": 1428,
      "componentType": 5125,
      "count": 1074,
      "type": "SCALAR"
    },
    {
      "bufferView": 2,
      "byteOffset": 11856,
      "componentType": 5126,
      "count": 497,
      "max": [
        31.650497436523438,
        20.836902618408203,
        204.49789428710938
      ],
      "min": [
        -31.650497436523438,
        -17.612398147583008,
        36.45269775390625
      ],
      "type": "VEC3"
    },
    {
      "bufferView": 2,
      "byteOffset": 17820,
      "componentType": 5126,
      "count": 497,
      "max": [
        0.9977076649665833,
        0.9990247488021851,
        0.9968419075012207
      ],
      "min": [
        -0.9996505379676819,
        -0.9977908730506897,
        -0.9864862561225891
      ],
      "type": "VEC3"
    },
    {
      "bufferView": 1,
      "byteOffset": 3952,
      "componentType": 5126,
      "count": 497,
      "max": [
        0.9915000200271606,
        0.991100013256073
      ],
      "min": [
        0.012199999764561653,
        0.005900000222027302
      ],
      "type": "VEC2"
    },
    {
      "bufferView": 0,
      "byteOffset": 5724,
      "componentType": 5125,
      "count": 1659,
      "type": "SCALAR"
    },
    {
      "bufferView": 2,
      "byteOffset": 23784,
      "componentType": 5126,
      "count": 1305,
      "max": [
        79.70529174804688,
        16.6310977935791,
        175.84048461914063
      ],
      "min": [
        -79.70529174804688,
        -21.073097229003906,
        95.86199951171875
      ],
      "type": "VEC3"
    },
    {
      "bufferView": 2,
      "byteOffset": 39444,
      "componentType": 5126,
      "count": 1305,
      "max": [
        0.9995163679122925,
        0.996484637260437,
        0.9980618953704834
      ],
      "min": [
        -0.9995163679122925,
        -0.9991722106933594,
        -0.9993404746055603
      ],
      "type": "VEC3"
    },
    {
      "bufferView": 1,
      "byteOffset": 7928,
      "componentType": 5126,
      "count": 1305,
      "max": [
        2.5903000831604004,
        3.654900074005127
      ],
      "min": [
        -1.6591999530792236,
        0.005799999926239252
      ],
      "type": "VEC2"
    },
    {
      "bufferView": 0,
      "byteOffset": 12360,
      "componentType": 5125,
      "count": 3573,
      "type": "SCALAR"
    },
    {
      "bufferView": 2,
      "byteOffset": 55104,
      "componentType": 5126,
      "count": 461,
      "max": [
        10.650398254394531,
        2.3919999599456787,
        202.80838012695313
      ],
      "min": [
        -10.650398254394531,
        -15.312997817993164,
        174.42739868164063
      ],
      "type": "VEC3"
    },
    {
      "bufferView": 2,
      "byteOffset": 60636,
      "componentType": 5126,
      "count": 461,
      "max": [
        0.9983817338943481,
        0.7729123830795288,
        0.9827755093574524
      ],
      "min": [
        -0.9983817338943481,
        -0.9984189867973328,
        -0.9998354911804199
      ],
      "type": "VEC3"
    },
    {
      "bufferView": 1,
      "byteOffset": 18368,
      "componentType": 5126,
      "count": 461,
      "max": [
        0.9878000020980835,
        0.9519000053405762
      ],
      "min": [
        0.009200000204145908,
        0.00559999980032444
      ],
      "type": "VEC2"
    },
    {
      "bufferView": 0,
      "byteOffset": 26652,
      "componentType": 5125,
      "count": 1980,
      "type": "SCALAR"
    }
  ],
  "asset": {
    "extras": {
      "author": "Tigerar1 (https://sketchfab.com/allanromanreyes)",
      "license": "SKETCHFAB Standard (https://sketchfab.com/licenses)",
      "source": "https://sketchfab.com/3d-models/hatsune-miku-34f3e7daa4c64c8a8000ae7f90b01ceb",
      "title": "Hatsune Miku"
    },
    "generator": "Sketchfab-16.33.0",
    "version": "2.0"
  },
  "bufferViews": [
    {
      "buffer": 0,
      "byteLength": 34572,
      "name": "floatBufferViews",
      "target": 34963
    },
    {
      "buffer": 0,
      "byteLength": 22056,
      "byteOffset": 34572,
      "byteStride": 8,
      "name": "floatBufferViews",
      "target": 34962
    },
    {
      "buffer": 0,
      "byteLength": 66168,
      "byteOffset": 56628,
      "byteStride": 12,
      "name": "floatBufferViews",
      "target": 34962
    }
  ],
  "buffers": [
    {
      "byteLength": 122796,
      "uri": "scene.bin"
    }
  ],
  "images": [
    {
      "uri": "textures/body_baseColor.png"
    },
    {
      "uri": "textures/body_parts_baseColor.png"
    },
    {
      "uri": "textures/face_baseColor.png"
    },
    {
      "uri": "textures/hair_baseColor.png"
    }
  ],
  "materials": [
    {
      "doubleSided": true,
      "name": "body",
      "pbrMetallicRoughness": {
        "baseColorTexture": {
          "index": 0
        },
        "metallicFactor": 0.0
      }
    },
    {
      "doubleSided": true,
      "name": "body_parts",
      "pbrMetallicRoughness": {
        "baseColorTexture": {
          "index": 1
        },
        "metallicFactor": 0.0
      }
    },
    {
      "doubleSided": true,
      "name": "face",
      "pbrMetallicRoughness": {
        "baseColorTexture": {
          "index": 2
        },
        "metallicFactor": 0.0
      }
    },
    {
      "doubleSided": true,
      "name": "hair",
      "pbrMetallicRoughness": {
        "baseColorTexture": {
          "index": 3
        },
        "metallicFactor": 0.0
      }
    }
  ],
  "meshes": [
    {
      "name": "Object_0",
      "primitives": [
        {
          "attributes": {
            "NORMAL": 1,
            "POSITION": 0,
            "TEXCOORD_0": 2
          },
          "indices": 3,
          "material": 0,
          "mode": 4
        }
      ]
    },
    {
      "name": "Object_1",
      "primitives": [
        {
          "attributes": {
            "NORMAL": 5,
            "POSITION": 4,
            "TEXCOORD_0": 6
          },
          "indices": 7,
          "material": 1,
          "mode": 4
        }
      ]
    },
    {
      "name": "Object_2",
      "primitives": [
        {
          "attributes": {
            "NORMAL": 9,
            "POSITION": 8,
            "TEXCOORD_0": 10
          },
          "indices": 11,
          "material": 3,
          "mode": 4
        }
      ]
    },
    {
      "name": "Object_3",
      "primitives": [
        {
          "attributes": {
            "NORMAL": 13,
            "POSITION": 12,
            "TEXCOORD_0": 14
          },
          "indices": 15,
          "material": 0,
          "mode": 4
        }
      ]
    },
    {
      "name": "Object_4",
      "primitives": [
        {
          "attributes": {
            "NORMAL": 17,
            "POSITION": 16,
            "TEXCOORD_0": 18
          },
          "indices": 19,
          "material": 2,
          "mode": 4
        }
      ]
    }
  ],
  "nodes": [
    {
      "children": [
        1
      ],
      "matrix": [
        1.0,
        0.0,
        0.0,
        0.0,
        0.0,
        2.220446049250313e-16,
        -1.0,
        0.0,
        0.0,
        1.0,
        2.220446049250313e-16,
        0.0,
        0.0,
        0.0,
        0.0,
        1.0
      ],
      "name": "Sketchfab_model"
    },
    {
      "children": [
        2,
        3,
        4,
        5,
        6
      ],
      "name": "HatsuneMiku.obj.cleaner.materialmerger.gles"
    },
    {
      "mesh": 0,
      "name": "Object_2"
    },
    {
      "mesh": 1,
      "name": "Object_3"
    },
    {
      "mesh": 2,
      "name": "Object_4"
    },
    {
      "mesh": 3,
      "name": "Object_5"
    },
    {
      "mesh": 4,
      "name": "Object_6"
    }
  ],
  "samplers": [
    {
      "magFilter": 9729,
      "minFilter": 9987,
      "wrapS": 10497,
      "wrapT": 10497
    }
  ],
  "scene": 0,
  "scenes": [
    {
      "name": "Sketchfab_Scene",
      "nodes": [
        0
      ]
    }
  ],
  "textures": [
    {
      "sampler": 0,
      "source": 0
    },
    {
      "sampler": 0,
      "source": 1
    },
    {
      "sampler": 0,
      "source": 2
    },
    {
      "sampler": 0,
      "source": 3
    }
  ]
}
